<svg xmlns="http://www.w3.org/2000/svg" width="1200" height="1269"><path fill="#fff" d="m620.313 46.875 2.23.12c2.11.11 4.21.24 6.32.37l3.67.22c3.66.44 6.94 1.35 10.47 2.41q2.25.42 4.53.72c.8.1 1.61.21 2.43.32 1.26.17 1.26.17 2.54.34 7.63 1.07 14.9 2.6 22.3 4.72a97 97 0 0 0 8.07 1.9c3.14.66 5.79 1.7 8.69 3.07 3.47 1.64 6.29 2.16 10.14 2.47 5.41 1.1 10.37 4.06 15.3 6.46 3.19 1.46 6.37 2.81 9.72 3.87 3.71 1.29 7.23 2.89 10.78 4.57.64.3 1.27.6 1.93.91 5.6 2.64 11.12 5.31 16.38 8.59 3.15 1.92 6.22 3.59 9.62 5 4.6 1.95 8.64 4.55 12.81 7.28 2.57 1.66 5.17 3.2 7.82 4.72 4.48 2.67 8.47 5.74 12.49 9.06 2.34 1.92 4.72 3.74 7.14 5.57 3.5 2.7 6.6 5.61 9.6 8.86 1.7 1.68 1.7 1.68 4 2.91 3.46 2.13 6.25 4.71 9.21 7.48.55.51 1.11 1.01 1.68 1.54 2.68 2.49 5.19 5.01 7.5 7.84 2.33 2.82 4.71 4.9 7.57 7.12 1.75 1.69 1.75 1.69 3.62 4.5 2.28 3.41 4.8 6.23 7.63 9.18 4.95 5.19 8.77 10.67 12.37 16.88 1.88 3.17 3.83 6.12 6.13 9 3.16 4.08 5.27 8.5 7.51 13.13 1.33 2.69 2.78 5.2 4.36 7.75 11.3 18.43 19.44 38.77 26.13 59.24.54 1.63 1.08 3.26 1.62 4.88.23.69.46 1.38.69 2.09.48 1.42.98 2.82 1.5 4.23 1.75 4.83 2.49 9.19 2.88 14.3.58 4.72 2.18 9.26 4.31 13.5.28 2.96.44 5.91.62 8.86.27 3.15.27 3.15 1.35 6.04 1.2 3.64 1.7 7.19 2.09 10.98.08.78.16 1.56.25 2.36 2.71 27.38 4.86 58.03-.8 85.1-.88 4.58-1.35 9.22-1.89 13.85-.97 7.93-2.34 15.34-4.59 23.01-1.25 4.6-2.14 9.24-3.03 13.93-1.78 9.26-3.75 18.39-8 26.87-.44 1.8-.88 3.6-1.31 5.4-.91 3.43-2.01 6.8-3.13 10.17-.41 1.24-.82 2.48-1.25 3.75-1.3 3.64-2.77 7.15-4.31 10.68-.99 2.44-1.95 4.88-2.9 7.33-1.7 4.4-3.54 8.62-5.73 12.8-1.57 3.05-2.74 5.84-3.5 9.19-.84 3.54-1.95 5.65-3.87 8.68-.29.87-.58 1.74-.88 2.63-2.53 7.59-6.27 14.73-9.88 21.86-1.27 2.58-2.45 5.19-3.62 7.83-3.49 7.74-7.19 15.63-12.31 22.44-2.31 3.24-3.75 6.29-5.29 9.93-1.38 3.11-3.05 6.02-4.73 8.98-1.38 2.5-2.66 5.03-3.92 7.59-1.96 3.95-4.07 7.71-6.45 11.43-2.46 3.87-4.75 7.78-6.92 11.81-2.5 4.63-5.16 9.09-8 13.5-1.17 1.84-2.34 3.67-3.5 5.5-3.5 5.51-3.5 5.51-4.89 7.67-3.06 4.84-5.85 9.81-8.61 14.83-5.01 8.89-10.29 17.55-16 26l-3.48 5.22-2.57 3.86c-2.14 3.2-4.28 6.41-6.4 9.63a740 740 0 0 1-15.53 22.57c-2.5 3.51-4.82 7.03-7.02 10.72a416 416 0 0 1-3.81 5.26c-2.58 3.5-5.07 7.03-7.44 10.68-2.01 3.06-4.12 5.52-6.75 8.06-1.02 1.66-2.02 3.33-3 5-3.53 5.8-7.01 11.4-11.64 16.37-1.73 2.07-3 4.31-4.36 6.63-3.64 5.41-7.46 10.67-11.4 15.86-2.6 3.48-5.13 7.01-7.67 10.53-1.33 1.79-2.69 3.55-4.08 5.29-1.9 2.28-1.9 2.28-3.35 4.82-1.63 2.72-3.51 5.04-5.5 7.5-6.97 9.15-13.86 18.37-20.31 27.88-3.3 4.75-7 9.07-10.78 13.44-2.93 3.43-5.42 6.85-7.69 10.74-2.08 3.32-4.59 6.29-7.07 9.32-1.43 1.74-2.83 3.5-4.21 5.29-4.21 5.37-8.69 10.2-13.69 14.83l-1.65 1.53c-3.03 2.75-6.04 4.98-9.6 6.97-.66.46-1.32.92-2 1.39-6.46 4.2-12.44 4.83-20 3.61-11.73-3.78-20.47-12.57-28-22-.99-.65-1.98-1.32-3-2-1.14-1.91-1.14-1.91-2.25-4.18-2.18-4.09-4.64-6.92-7.99-10.08-4.2-4.14-7.38-9.12-10.57-14.05-3-4.55-6.42-8.68-9.9-12.86-2.2-2.72-4.26-5.48-6.29-8.33-2.64-3.67-5.36-7.21-8.25-10.68-7.81-9.44-15.39-19.08-21.47-29.73-1.63-2.65-3.57-4.87-5.65-7.17-2.79-3.26-5.2-6.8-7.69-10.29-1.6-2.17-3.25-4.14-5.07-6.13-2.49-2.79-4.14-5.73-5.87-9.06-1.72-3.3-3.23-5.94-6-8.44-3.49-3.13-5.27-6.94-7.31-11.12-1.77-3.01-3.78-5.38-6.08-7.98-2.8-3.29-5.22-6.85-7.68-10.4-1.01-1.44-2.02-2.89-3.03-4.34-.73-1.04-.73-1.04-1.47-2.11-1.39-1.98-2.8-3.94-4.22-5.9-2.21-3.15-2.21-3.15-3.59-6.02-1.47-2.83-3.01-4.96-5-7.44-2.96-3.7-5.23-7.45-7.44-11.64-1.25-2.3-1.25-2.3-3.68-4.98-2.19-2.69-3.47-4.85-4.94-7.94-2.82-5.89-6.54-10.69-10.69-15.69-1.82-2.37-3.24-4.82-4.68-7.43-1.4-2.35-2.97-4.54-4.57-6.75-4.39-6.19-7.91-12.76-11.25-19.57-1.35-2.78-1.35-2.78-3.31-5.56-1.52-2.3-2.7-4.35-3.87-6.81-4-8.2-9.34-15.68-14.71-23.03-1.53-2.36-2.47-4.67-3.48-7.29-.72-1.22-1.47-2.43-2.25-3.62-2.65-4.13-4.96-8.4-7.28-12.71-1.29-2.33-2.65-4.56-4.1-6.79-2.08-3.26-3.63-6.57-5.15-10.13-2.55-5.73-5.46-11.29-8.29-16.89-1.2-2.39-2.38-4.78-3.56-7.17-1.74-3.49-3.6-6.9-5.5-10.31-1.8-3.26-3.37-6.43-4.62-9.94-.98-3.45-.98-3.45-3.25-5.44-.52-1.66-.97-3.36-1.38-5.06-1.72-6.61-4.13-12.54-7.69-18.37-2.5-4.25-3.62-8.85-4.93-13.57-1.36-4.49-2.79-8.73-5-12.87-2.17-4.1-3.23-8.31-4.29-12.8-.56-2.49-.56-2.49-2.71-4.33-.71-3.28-1.26-6.56-1.77-9.88-.77-4.55-2.1-7.98-4.23-12.12-.61-2.25-1.15-4.52-1.63-6.81-.53-3.91-.53-3.91-2.37-7.19-.28-1.59-.49-3.19-.69-4.8-.18-1.46-.18-1.46-.37-2.96l-.75-6.2c-.12-.98-.25-1.96-.38-2.96-.1-.9-.21-1.8-.33-2.73-.38-2.6-.38-2.6-2.48-5.35-.35-2.56-.35-2.56-.5-5.56-.26-3.87-.65-7.53-1.5-11.31-1.18-5.37-1.46-10.74-1.76-16.22-.06-2.84-.06-2.84-1.24-4.91a100 100 0 0 1-.22-5.48c-.03-1.15-.05-2.3-.07-3.48l-.06-3.78c-.03-1.29-.05-2.57-.07-3.89-.05-2.73-.1-5.45-.14-8.17-.05-3.47-.12-6.93-.19-10.4-.06-3.33-.11-6.65-.17-9.98-.02-1.24-.04-2.47-.07-3.74-.1-6.7-.19-13.45.99-20.08.33-.32.66-.66 1-1 .28-3.52.45-7.04.62-10.58.35-3.16.92-4.69 2.38-7.42.31-2.3.31-2.3.37-4.81.45-6.13 2-11.81 3.66-17.7.73-2.64 1.37-5.24 1.9-7.92.93-4.33 2.21-8.53 3.5-12.75.21-.68.42-1.36.63-2.06 1.3-4.15 2.99-7.88 4.94-11.76.51-2.09.51-2.09.75-4.12.81-4.15 2.46-7.16 4.68-10.75 3.01-4.86 4.6-9.2 5.89-14.73.93-3.28 2.68-5.66 4.68-8.4.73-1.68 1.45-3.36 2.16-5.05 5.32-12.35 12.6-23.34 20.53-34.14 1.23-1.7 2.41-3.44 3.57-5.2 1.47-2.2 2.89-3.76 4.74-5.61.41-.74.82-1.48 1.25-2.24 1.58-2.49 3.02-4.07 5.12-6.07 2.5-2.41 4.38-4.69 6.13-7.69 2.56-4.35 5.83-7.56 9.5-11 4.14-4.03 7.94-8.31 11.72-12.69 2.28-2.31 4.49-3.69 7.28-5.31 1.19-1.45 2.39-2.9 3.55-4.38 2.73-3.04 6.14-5.24 9.45-7.62 1.24-.98 1.24-.98 2.5-2 2.82-2.25 5.72-4.39 8.63-6.53 1.88-1.42 1.88-1.42 3.46-3.06 1.41-1.41 1.41-1.41 3.84-2.84 2.6-1.44 2.6-1.44 4.44-3.5 2.22-2.15 4.51-3.52 7.25-4.94 2.01-1.14 2.01-1.14 4.12-2.99 3.3-2.55 6.74-4.37 10.45-6.26 4.98-2.45 4.98-2.45 9.31-5.88 1.93-.73 3.87-1.46 5.82-2.16 3.39-1.3 6.53-3.02 9.74-4.71 6.67-3.45 13.34-5.95 20.52-8.12 3-.8 3-.8 4.92-3.01 1.79-.54 3.61-1.01 5.43-1.43 1.61-.39 1.61-.39 3.25-.78l3.32-.79q3.03-.75 6.06-1.56c.88-.23 1.76-.45 2.66-.69 2.52-.71 2.52-.71 5.28-2.75 2.95-.57 5.91-.95 8.89-1.33 3.15-.53 3.15-.53 5.9-2.14 3.34-1.59 6.01-2.17 9.66-2.66 1.2-.16 2.39-.33 3.62-.5 1.24-.16 2.47-.32 3.74-.49 2.47-.33 4.93-.67 7.39-1.01 1.09-.14 2.18-.28 3.3-.43 2.43-.18 2.43-.18 3.5-1.44 24.55-3.25 49.65-2.49 74.31-1.12m-49.31 54.12c-3.03.17-6.04.28-9.07.38-6.86.28-13.55.84-20.31 2.06-.68.12-1.36.25-2.06.37-2.95.57-5.75 1.26-8.59 2.21-3.39 1.12-6.7 1.67-10.22 2.24-10.09 1.74-19.86 4.92-29.33 8.8-2.42.94-2.42.94-5.82 1.86-3.7 1.12-6.81 2.59-10.23 4.4-4.7 2.44-9.37 4.51-14.37 6.31-4.91 1.81-8.04 3.92-12 7.37-1.88 1-3.78 1.96-5.69 2.88-9.87 4.79-18.29 10.69-26.59 17.79-1.78 1.53-3.59 3.03-5.43 4.49-2.38 1.84-2.38 1.84-4.6 4.22-2.86 2.78-5.86 5.01-9.12 7.29l-1.57 1.33v2c-.58.23-1.16.46-1.75.69-2.82 1.65-4.27 3.75-6.25 6.31l-3 2c-.5 1.49-.5 1.49-1 3-.7.54-1.41 1.08-2.13 1.63-3.98 3.29-6.78 7.27-9.87 11.37-.66.81-1.32 1.61-2 2.44-4.61 5.9-8.77 11.79-11.92 18.59-1.1 2.01-2.3 3.4-3.88 5.05-3.83 4.37-6.07 9.29-8.45 14.55-.44.93-.87 1.86-1.32 2.81-1.92 4.15-3.74 8.31-5.43 12.56-.79 1.67-1.58 3.34-2.38 5-2.42 5.26-4.1 10.58-5.63 16.16-.99 2.84-.99 2.84-2.52 4.74-2.45 3.5-2.61 7.68-3.2 11.82-.63 3.87-1.54 7.04-3.27 10.57-2.52 5.36-3.05 10.68-3.63 16.53l-.72 6.44c-.11 1-.22 2.01-.34 3.05-.35 3.02-.83 6.01-1.38 9.01-5.04 29.36-4.54 60.68.63 89.99.56 3.45.81 6.83 1 10.32.11 4.35.11 4.35 1.44 8.37.24 3.12.38 6.23.52 9.35.48 3.7 1.42 6.82 2.66 10.32 1.35 3.84 2.47 7.75 3.63 11.65.25.85.51 1.7.77 2.58 1.37 4.55 2.71 9.11 4.03 13.68.4 1.34.4 1.34.8 2.72.51 1.72 1 3.44 1.49 5.17 1.26 4.28 2.7 7.74 5.1 11.53.83 2.48 1.49 4.97 2.15 7.5.95 2.8 2.31 4.99 3.85 7.5q1.26 2.925 2.43 5.88c1.38 3.38 2.74 6.63 4.63 9.75 2.03 3.53 3.47 7.05 4.94 10.83 1.24 3.16 2.61 6.24 4 9.33.67 1.48 1.32 2.97 1.96 4.46 3.15 7.28 6.99 14.04 11.1 20.82 2.55 4.21 4.8 8.49 6.94 12.93 4.38-1.65 8.51-3.69 12.69-5.81l2.14-1.07c3.09-1.56 6.17-3.12 9.26-4.68.86-.43 1.71-.87 2.6-1.31.72-.37 1.45-.74 2.19-1.12 4.57-2.18 8.87-3.45 13.84-4.34 2.4-.59 2.4-.59 4.71-2.16 16.24-9.52 47.56-5.58 65.43-1.66 6.43 1.74 12.43 3.99 18.42 6.87 2.89 1.37 5.82 2.54 8.78 3.72 4.87 2 9.2 4.44 13.65 7.23 2.05 1.2 3.92 2.02 6.16 2.77 3.71 1.25 6.84 3.11 10.19 5.13 4.33 2.6 8.03 4.34 12.94 5.43.33.34.66.66 1 1 13.96 2.84 27.69 4.63 41.93 3.26.8-.08 1.59-.15 2.41-.23 5.04-.57 9.02-1.88 13.66-4.03 2.13-.67 4.28-1.32 6.43-1.93 5.95-1.79 11.53-3.72 16.5-7.57 2.56-1.85 5.2-2.94 8.09-4.19 3.94-1.73 7.83-3.54 11.73-5.37.73-.34 1.46-.68 2.22-1.03 3.82-1.79 7.41-3.73 11.03-5.91 2.32-.71 4.65-1.37 7-2 1.44-.49 2.87-.99 4.31-1.5 16.94-5.64 35.16-5.25 52.69-3.18 1.1.12 2.19.23 3.33.35 18.47 2.14 18.47 2.14 21.67 5.33l3.43-.06c3.57.06 3.57.06 5.57 2.06a82 82 0 0 0 4.75 1.94c5.21 1.98 10.09 4.42 14.97 7.11l1.94 1.06c1.32.73 2.63 1.46 3.95 2.2 3.48 1.9 5.34 2.69 9.39 2.69.61-1.48.61-1.48 1.24-2.99.54-1.29 1.09-2.59 1.63-3.88.27-.65.54-1.3.82-1.97 1.19-2.82 2.12-4.97 4.31-7.16.29-.74.57-1.48.87-2.24 1.13-2.76 1.13-2.76 3.06-5.44 1.79-2.87 2.58-4.71 3.44-7.88 1.5-5.44 3.79-10.37 6.23-15.45 1.23-2.64 2.33-5.28 3.4-7.99.49-.94.99-1.89 1.5-2.87 1.59-3.33 2.5-6.58 3.5-10.13 1.34-3.34 2.8-6.58 4.35-9.83 6.79-13.78 6.79-13.78 10.21-28.6.45-3.64 1.53-5.67 3.46-8.73 1.44-2.7 1.85-5.46 2.41-8.45.62-2.62 1.56-4.92 2.63-7.39 2-4.72 2.53-8.9 2.94-14 .33-.32.66-.66 1-1 .21-1.99.37-3.99.5-6 .39-5.88.39-5.88 1.5-7 .29-2.64.45-5.29.62-7.94.38-3.06.38-3.06 1.35-6.28 1.27-4.67 1.69-9.22 2.09-14.02.15-1.78.31-3.56.47-5.33.07-.78.13-1.56.2-2.36.27-2.06.27-2.06 1.27-5.07.24-3.97.19-7.95.19-11.93-.01-1.19-.01-2.38-.01-3.61-.07-12.16-.88-24.25-1.92-36.37-.18-2.08-.34-4.15-.48-6.23-.08-.99-.15-1.97-.22-2.98-.06-.87-.12-1.74-.19-2.63-.26-2.52-.26-2.52-2.37-5.25-.38-2.08-.38-2.08-.57-4.45-.07-.87-.14-1.73-.22-2.63-.07-.9-.14-1.8-.21-2.73-.45-5.71-.98-10.77-3-16.19-.35-1.61-.66-3.24-.94-4.87-1.31-7.63-1.31-7.63-5.06-14.13-.25-1.25-.5-2.51-.75-3.81-1.44-6.76-4.36-12.9-7.14-19.19a78 78 0 0 1-3.36-9.18c-1.64-5.11-4.33-9.47-7.13-14.02-1.48-2.56-2.54-5.05-3.62-7.8-.93-1.14-.93-1.14-1.88-2.31-2.06-2.61-3.37-5.2-4.8-8.19-6.88-13-15.81-26.24-26.32-36.5-2.91-2.89-5.8-5.81-8.67-8.74-7.63-7.74-15.06-15.14-24.18-21.12-3.25-2.2-6.33-4.58-9.4-7.01-4.7-3.67-9.45-6.93-14.63-9.9-1.73-1-3.41-2.1-5.06-3.23-3.76-2.45-7.68-4.48-11.67-6.53-2.39-1.47-2.39-1.47-4.39-4.47-2.01-.84-2.01-.84-4.38-1.37-7.21-1.99-14.11-4.8-20.75-8.25-3.38-1.62-6.79-2.6-10.39-3.63-2.48-.75-2.48-.75-6.11-2.18-6.59-2.51-13.51-3.99-20.37-5.57-1.31-.3-1.31-.3-2.65-.61-24.69-5.69-49.51-7.66-74.79-7.63h-2.34c-7.86-.47-7.86-.47-15.22 1.24m-138 522c-3.53 1.01-7.08 1.96-10.63 2.91-3.19 1.04-5.55 2.32-8.37 4.09-1.65.71-3.32 1.37-5 2-3.57 1.39-6.8 2.87-10 5 .54 3.93 1.62 5.9 4 9 .7 1.61 1.4 3.22 2.07 4.84 4.23 9.88 9.64 18.51 15.93 27.16 2.8-.5 5.49-1.14 8.24-1.92 21.23-6.05 45.74-9.22 66.76-1.08 2.33.68 4.66 1.34 7 2 8.35 2.9 16.14 6.99 24 11 1.02.51 2.05 1.01 3.11 1.53 2.89 1.47 2.89 1.47 5.44 3.04 2.5 1.47 4.89 2.43 7.64 3.37 3.71 1.31 7.4 2.66 11.06 4.13.82.32 1.64.65 2.49.99 1.93.81 3.82 1.71 5.69 2.63 18.76 6.91 49.39 4.67 67.57-3.69 1.32-.59 1.32-.59 2.67-1.19q2.76-1.245 5.52-2.52c2.04-.93 4.09-1.83 6.16-2.7 3.9-1.7 7.67-3.58 11.46-5.52 5.96-3.02 11.92-5.74 18.19-8.07 1.19-.49 2.39-.99 3.62-1.5 3.98-1.47 8.08-2.52 12.19-3.56.96-.24.96-.24 1.94-.49 2.08-.51 4.16-.98 6.25-1.45 1.23-.27 1.23-.27 2.48-.55 7.42-1.51 14.65-1.83 22.21-1.82h3.72c9.51.12 17.57 1.46 26.59 4.37 1.72.42 3.45.82 5.19 1.19 3.81.81 3.81.81 6.56 1.75 2.47.3 2.47.3 4.75-1.81 2.63-2.95 4.4-6.33 6.19-9.84 1.31-2.29 1.31-2.29 3.27-4.7 2.14-2.71 3.55-5.35 5.04-8.46 1.69-3.5 3.4-6.85 5.5-10.13 1.78-2.79 1.78-2.79 1.06-5.24-1.97-2.21-3.96-3.36-6.56-4.76-2.72-1.61-5.37-3.24-8-5-3.1-.66-6.19-1.18-9.32-1.67-4.45-.76-8.55-1.93-12.82-3.38-7.11-2.24-13.82-2.65-21.24-2.76l-3.85-.09c-8.64-.16-17.18-.16-25.77.9-1.01.13-2.02.25-3.05.38-5.22.79-9.51 2.08-14.13 4.62-1.82 1-1.82 1-5.2 2.44-2.88 1.25-5.64 2.57-8.43 4-4.23 2.15-8.52 3.93-12.97 5.57-2.37 1.06-4.17 2.41-6.22 3.99-1.62.73-3.25 1.45-4.9 2.12-2.49 1.05-4.91 2.22-7.35 3.38-5.46 2.5-10.94 4.07-16.75 5.5-4.61 1.21-4.61 1.21-9 3-1.4.11-2.81.15-4.22.17l-2.64.03c-.94 0-1.89 0-2.87.01-.97 0-1.94.01-2.95.02-2.07 0-4.14.01-6.21.02-3.14 0-6.28.04-9.42.07-2.02 0-4.03.01-6.04.01-.93.02-1.86.03-2.82.04-6.18-.02-11.09-1.17-16.83-3.37-1.69-.41-3.37-.81-5.07-1.18-7.13-1.89-13.48-5.39-19.99-8.8-1.94-1.01-3.89-1.99-5.85-2.96-2.9-1.44-5.76-2.94-8.61-4.49-7.86-4.27-15.42-8.33-24.04-10.85-2.44-.72-2.44-.72-4.83-1.75-5.99-2.22-12.53-2.22-18.86-2.53l-2.56-.12c-19.5-1.4-19.5-1.4-38.19 2.68m12 89h-2c1.59 9.35 6.11 16.71 12.23 23.81 1.62 2.01 2.62 3.9 3.77 6.19.66.34 1.32.66 2 1 .95 1.64 1.9 3.28 2.81 4.93 2.19 3.83 4.7 7.44 7.19 11.07.74 1.09 1.48 2.18 2.24 3.29 4.26 6.27 4.26 6.27 8.84 12.29 1.89 2.39 3.36 4.82 4.92 7.42 1.39 1.92 2.81 3.81 4.25 5.69 9.58 12.68 9.58 12.68 13.27 18.87 1.3 2.16 2.68 4.09 4.23 6.07 2.38 3.13 4.53 6.35 6.62 9.69 3.08 4.91 6.4 9.58 9.84 14.24 1.41 1.93 2.75 3.87 4.04 5.88 1.63 2.56 1.63 2.56 3.62 4.44 5.22 5.22 9.2 11.64 13.4 17.68 3.42 4.85 6.91 9.57 10.85 14.01 2.33 2.66 4.01 5.38 5.7 8.49 4.16 6.85 9.88 12.79 15.23 18.71 2.59 2.97 4.95 6.09 7.34 9.22 2.03 2.55 4.23 4.78 6.61 7.01 8.12-2.46 12.65-8.59 17.19-15.36 2.39-3.48 5.04-6.72 7.7-9.99 2.31-2.9 4.52-5.86 6.73-8.83 2.4-3.22 4.79-6.37 7.44-9.38 3.27-3.72 6.11-7.73 9-11.75 2.6-3.6 5.27-7.14 7.94-10.69 2.28-3.03 4.56-6.07 6.83-9.11 1.28-1.7 2.55-3.39 3.83-5.08 3.33-4.39 6.5-8.87 9.63-13.41 1.81-2.54 3.74-4.97 5.71-7.4 1.97-2.45 3.95-4.92 5.91-7.38q1.98-2.49 3.99-4.95c2.8-3.49 5.32-6.89 7.41-10.85 2.48-4.67 5.5-8.89 8.6-13.16 3.36-4.62 6.62-9.31 9.84-14.03 3.27-4.79 6.59-9.5 10.12-14.11 1.25-1.64 1.25-1.64 2.63-4.02 1.34-2.24 2.78-4.23 4.37-6.31 2.47-3.24 4.66-6.56 6.77-10.04 1.58-2.49 3.27-4.87 4.98-7.27 4.67-5.91 4.67-5.91 6.19-12.9-1.09-2.65-2.18-3.07-4.77-4.21-5-2.01-9.39-2.27-14.73-2.08l-2.64.06c-2.56.06-5.12.15-7.67.25l-3.99.14c-13.84.71-29.14 3.88-40.01 12.86-1.86.95-1.86.95-3.75 1.69-3.98 1.66-7.69 3.63-11.45 5.71-11.42 6.28-11.42 6.28-18.14 7.15-4.39.75-8.57 2.27-12.78 3.69-.64.21-1.29.43-1.95.64-.57.2-1.13.39-1.71.58-9.05 2.21-18.54 1.84-27.78 1.9-1.86.01-3.72.04-5.58.08-13.13.27-24.43-1.15-36.86-5.44-.69-.23-1.37-.46-2.08-.7-4-1.37-7.97-2.81-11.92-4.3-.78-.27-1.56-.55-2.36-.83-6.9-2.48-12.95-5.67-19.08-9.67-7.87-5.05-15.42-7.93-24.51-10.1-4.85-1.19-4.85-1.19-7.05-3.4-2.53-.19-4.94-.27-7.46-.26-.74 0-1.48 0-2.24-.01-1.57 0-3.14.01-4.71.01-2.39.01-4.77 0-7.16-.01-1.53 0-3.05.01-4.58.01-1.06-.01-1.06-.01-2.15-.01-4.04.03-7.05.59-10.7 2.27"/><path fill="#fff" d="M593.438 164.938c1.76.53 1.76.53 3.56 1.06.73.18 1.45.36 2.19.55 4.99 1.38 8.31 3.33 12.07 6.86 1.8 1.65 3.68 3.01 5.68 4.41 3.95 2.89 6.91 6.33 10.07 10.04 1.84 1.98 3.59 3.43 5.81 4.96 6.7 4.72 12.24 11.42 17.27 17.85 1.8 2.19 3.58 3.82 5.79 5.58 4.35 3.73 7.14 7.9 10.12 12.75.98 1.49 1.95 2.97 2.94 4.44.49.74.98 1.48 1.49 2.24 1.69 2.49 3.44 4.94 5.2 7.38 2.5 3.55 4.52 7.06 6.36 10.98 1.1 2.13 2.38 4 3.76 5.96 8.74 12.81 14.82 27.88 19.36 42.6.76 2.54.76 2.54 2.89 4.4.74 2.63 1.4 5.22 2 7.88 1.08 5.17 1.08 5.17 3 10.05 10.78 22.25 6.69 58.72-.73 81.3-.49 1.29-.99 2.57-1.51 3.85-.84 2.13-1.55 4.28-2.26 6.47l-.75 2.31c-.5 1.56-1 3.13-1.5 4.7-1.36 4.17-2.84 7.74-5.25 11.44-.59 1.25-1.18 2.5-1.75 3.75-1.58 3.25-3.46 5.89-5.75 8.69-2.46 3.02-4.17 5.76-5.62 9.38-1.61 3.97-3.47 5.54-6.88 8.18-.88 1.9-1.77 3.81-2.63 5.72-2.33 3.89-5.65 6.79-8.93 9.89-2.38 2.33-4.36 4.79-6.44 7.39-1.17 1.1-2.38 2.16-3.62 3.19-5.89 5.03-12.07 10.35-16.38 16.81-.76.46-1.52.91-2.31 1.38-3.08 1.86-5.14 4.07-7.69 6.62-2.25 2.02-4.56 3.98-6.87 5.94-.88.75-.88.75-1.78 1.51-1.18 1.01-2.36 2.01-3.55 3.01-1.24 1.07-2.47 2.15-3.69 3.25-.61.55-1.22 1.1-1.85 1.66l-1.66 1.52c-1.6 1.11-1.6 1.11-4.85 1.24-3.3-1.36-4.06-1.99-5.75-5.13-.47-3.19-.45-6.37-.45-9.59-.02-1.46-.02-1.46-.03-2.95-.04-3.22-.05-6.45-.06-9.67l-.03-6.74c-.03-4.72-.04-9.44-.04-14.16 0-6.02-.05-12.03-.12-18.05-.04-4.65-.05-9.29-.05-13.94 0-2.22-.02-4.43-.05-6.65-.17-14.68.57-26.36 10.75-37.81.89-.8 1.79-1.61 2.71-2.44.94-.88 1.89-1.76 2.86-2.66.83-.77 1.66-1.54 2.51-2.34.97-1.1 1.91-2.22 2.82-3.37 2.46-2.96 5.23-5.17 8.18-7.63 1.69-1.98 3.36-3.98 5-6 2.4-2.46 4.85-4.85 7.32-7.25 2.25-2.31 4.33-4.67 6.43-7.12 2.77-3.17 5.54-5.72 8.94-8.19 5.72-4.3 9.18-8.89 10.25-16.06.24-3.84-.27-6.86-1.94-10.38-3.52-1.76-7.27-.93-11 0-2.6 2.02-2.6 2.02-5 5-1.54 1.44-3.11 2.85-4.68 4.25-.87.78-1.73 1.55-2.62 2.35-1.79 1.6-3.59 3.19-5.39 4.77-5.32 4.66-5.32 4.66-10.06 9.88-2.54 3.1-5.05 5.34-8.25 7.75h-2c-.2.56-.41 1.12-.62 1.69-1.88 3.16-4.57 4.97-7.38 7.31-1.37 2.15-1.37 2.15-2 4h-5c-1.75-3.79-2.24-6.72-2.21-10.89 0-1.77 0-1.77.01-3.57l.04-3.89c.01-1.38.01-2.75.02-4.12.01-2.96.03-5.91.05-8.86.04-4.67.06-9.34.08-14.01.04-13.27.12-26.54.2-39.82.05-7.33.09-14.67.11-22q.015-6.96.09-13.92c.02-2.89.03-5.77.03-8.66 0-1.98.03-3.95.06-5.93 0-1.18-.01-2.35-.01-3.57.01-1.02.01-2.04.02-3.09-.62-3.4-1.79-4.58-4.49-6.67-3.3-.49-5.51-.15-8.68.82-4.85 4.58-5.46 12.4-5.68 18.82-.02 2.02-.01 4.04.01 6.06-.01 1.12-.01 2.23-.01 3.38 0 3.65.02 7.31.03 10.97.01 2.57.01 5.14.01 7.71 0 5.39.02 10.78.04 16.17.03 6.84.04 13.68.04 20.52.01 6.59.02 13.19.04 19.78 0 1.84 0 1.84.01 3.72.02 13.41.19 26.79.89 40.19.36 7.37.14 14.52-.7 21.86l-4 1c-.36-.44-.72-.89-1.1-1.35-2.47-2.98-4.84-5.6-7.84-8.09-2.44-2.04-4.28-3.89-6.31-6.31-3.51-4.12-7.42-7.65-11.47-11.23-4.23-3.74-7.97-7.8-11.72-12.02-5.28-5.87-9.94-10.46-17.56-13-3.16.27-4.27 1.18-7 3-2.82 5.2-2.56 10.5-1.25 16.13 2.58 7.25 8.94 12.54 14.25 17.87.68.71 1.36 1.42 2.06 2.14 2.76 2.83 5.61 5.44 8.63 7.99 4.31 3.7 8.06 7.84 11.88 12.03 3.44 3.78 6.98 7.42 10.63 11 2.54 2.59 4.86 5.36 7.22 8.12 1.63 1.88 1.63 1.88 4.14 3.6 4.75 4.14 7.94 9.17 9.01 15.42.22 3.79.27 7.55.24 11.34.01 1.4.02 2.8.04 4.21q.045 5.52.03 11.04c0 3.7.03 7.39.06 11.09.05 6.72.08 13.44.05 20.16.01 2.74.05 5.47.12 8.21.01.72.03 1.44.04 2.18q.06 3.015.15 6.03c-.32 3.72-.94 5.57-3.3 8.44-6.31 1.22-10.14-.66-15.42-4.09-4.49-3.32-8.51-7.09-12.58-10.91-1.41-1.25-2.82-2.51-4.25-3.75l-1.92-1.68c-1.75-1.5-3.53-2.94-5.33-4.38-1.23-1.08-1.23-1.08-2.5-2.19v-2c-.55-.23-1.11-.46-1.68-.7-6.85-3.84-12.16-10.79-16.32-17.3-1.21-1.39-2.44-2.76-3.68-4.12-4.06-4.48-7.66-9.22-11.24-14.08-1.38-1.86-2.81-3.69-4.28-5.49-1.85-2.37-2.7-4.53-3.8-7.31-.46-.41-.93-.83-1.4-1.26-2.2-2.39-2.94-4.88-4.04-7.92-1.37-3.75-2.74-7.36-4.62-10.88-2.2-4.17-3.5-8.57-4.93-13.05-1.11-3.18-2.5-6.06-4.07-9.04-11.29-22.22-8.47-53.57-5.69-77.66.11-.99.22-1.98.33-2.99.76-5.76 2.18-10.73 4.51-16.05 1.26-2.97 2.05-6.04 2.91-9.15.72-1.96 1.47-3.9 2.23-5.85.82-2.27 1.45-4.56 2.09-6.9 1.78-6.13 4.72-11.61 7.68-17.25.49-.97.98-1.95 1.48-2.96 10.57-21.08 10.57-21.08 15.52-26.04.29-.77.57-1.54.86-2.33 1.34-3.13 3.03-4.92 5.39-7.35 3.84-4.12 6.66-8.25 9.42-13.14 1.73-2.83 3.93-4.9 6.33-7.18.84-1.15 1.65-2.32 2.44-3.5 2.4-3.48 5.28-5.83 8.56-8.5 1.21-1.46 2.42-2.92 3.6-4.4 2.81-3.2 6.16-5.85 9.4-8.6 1.63-1.39 3.26-2.78 4.88-4.18.74-.64 1.48-1.27 2.24-1.92 1.89-1.91 2.7-3.53 3.88-5.9 3.94-3.62 8.51-6.4 13.22-8.92 2.11-1.28 3.89-2.81 5.78-4.39 2.91-2.21 3.65-2.68 7.44-2.75M358.924 1059.694c1.25-.02 2.49-.03 3.78-.05 1.37 0 2.74-.01 4.11-.01l4.24-.03c2.98-.02 5.96-.03 8.93-.03 3.03 0 6.05-.02 9.07-.06 31.91-.38 31.91-.38 45.95 5.49.85.32 1.71.64 2.59.97 8.43 3.32 13.81 11.7 17.44 19.63 3.79 9.44 5.22 19.65 1.97 29.4-.94 2.18-.94 2.18-2 4-.41.74-.82 1.48-1.25 2.25-2.03 3.18-4.37 5.79-6.94 8.56-.46.5-.93 1-1.41 1.52-1.13 1.23-2.27 2.45-3.4 3.67 2.2 2.28 4.1 4.06 6.81 5.75 7.64 5.39 13.42 12.92 15.19 22.25 1.44 12.86 1.82 25.19-6 36-.41.7-.82 1.4-1.25 2.13-2.88 4.57-6.88 7.89-11.13 11.18l-1.54 1.27c-11.5 8.37-28.9 6.83-42.4 6.67-1.85-.02-3.7-.03-5.54-.04-14.4-.1-28.77-.49-43.14-1.21-2.13-3.48-2.26-6.24-2.26-10.28 0-1.29-.01-2.58-.02-3.91.01-1.43.01-2.85.02-4.28-.01-1.51-.01-3.01-.01-4.52-.01-4.08-.01-8.16 0-12.25 0-4.27 0-8.54-.01-12.81 0-7.17.01-14.34.02-21.51.01-8.3 0-16.6-.01-24.9q-.015-10.68 0-21.36c0-4.25 0-8.5-.01-12.76 0-4 0-7.99.01-11.99.01-1.47 0-2.94 0-4.41 0-2 0-4 .01-6v-3.4c.51-5.31 3.63-4.89 8.18-4.93m29.08 31.31c-1.68 3.66-2.26 6.54-2.27 10.56 0 1.04 0 2.09-.01 3.16l.03 3.28-.03 3.27c.01 1.04.01 2.09.01 3.16 0 .95 0 1.9.01 2.87.27 2.89 1.06 5.07 2.26 7.7 16.15.94 16.15.94 30.56-5.13 2.58-2.5 3.93-4.29 4.44-7.87v-4c.08-1.2.16-2.4.25-3.63-.38-5.07-1.84-8.04-5.54-11.53-5.04-3.23-11.35-2.26-17.09-2.09-1.82.02-1.82.02-3.67.05-2.99.05-5.97.11-8.95.2m9 61.5c-.87.04-1.74.09-2.64.14l-6.36.36c-2.58 5.89-2.3 11.69-2.25 18-.02 1.6-.02 1.6-.03 3.23.01 1.04.01 2.07.01 3.14 0 .94 0 1.87.01 2.84.29 3.16 1.15 5.82 2.26 8.79q6.81.12 13.62.18c1.29.03 2.57.05 3.9.08l3.76.03c1.15.02 2.29.03 3.46.05 6.34-.67 10.04-3.78 14.26-8.34l2-2c.92-6.68 1.11-13.25-2.5-19.13-3.12-3.92-6.59-6.69-11.5-7.87-6.02-.2-12 .16-18 .5M218.364 1059.612l3.99-.03c1.44.01 2.87.01 4.31.02 1.48 0 2.96-.01 4.44-.01 3.1 0 6.21 0 9.31.02 3.96.01 7.92 0 11.88-.01 3.05-.01 6.11-.01 9.17 0 1.46 0 2.92 0 4.37-.01 7.63-.03 14.17.11 21.17 3.41 1.67.36 3.36.68 5.06.94 4.57.86 8.15 2.37 11.94 5.06.8.56 1.61 1.11 2.44 1.69 7.99 5.9 12.84 12.69 15.56 22.31l1 1c.21 1.76.36 3.54.5 5.31.26 3.85.26 3.85 1.03 7.62.78 3.44.19 6.85-.22 10.32q-.135 1.14-.27 2.31c-.74 5.57-2.12 9.6-5.04 14.44-.27.97-.55 1.95-.82 2.95-1.42 3.65-2.92 4.84-6.06 7.11-3.68 2.69-6.32 5.35-9.12 8.94a141 141 0 0 1-5 3l-1 2c1.48.49 1.48.49 3 1 .95 2 .95 2 1.81 4.56 1.32 3.56 2.68 6.36 5.06 9.31 3.28 4.08 5.42 8.48 7.63 13.2 1.46 3 1.46 3 3.45 5.85 2.18 3.28 3.92 6.67 5.61 10.2 2.26 4.75 2.26 4.75 5.14 9.14 1.72 2.31 1.53 3.93 1.3 6.74-5.39 1.8-10.04 2.29-15.69 2.19l-2.39-.03c-2.31-.04-4.61-.1-6.92-.16l-3.67-.06c-4.5-.19-7.43-.33-11.21-2.88-4.9-7.06-8.84-14.41-12.62-22.11-1.85-3.64-3.93-7.1-6.05-10.57-6.04-9.9-6.04-9.9-7.39-14.69-1.56-3.94-3.22-4.98-7.06-6.69-2.57.02-2.57.02-5.22.4-.9.11-1.8.21-2.72.32-.68.09-1.36.19-2.06.28-.01.67-.02 1.35-.04 2.04-.1 6.99-.22 13.98-.34 20.97l-.12 7.84c-.06 3.75-.12 7.49-.19 11.24-.02 1.76-.02 1.76-.05 3.56l-.06 3.28c-.01.95-.03 1.91-.05 2.9-.15 2.17-.15 2.17-1.15 3.17-7.83 1.1-15.81 1.12-23.69 1.19l-2.68.03c-.83.01-1.67.01-2.52.01-1.12 0-1.12 0-2.26.01-1.85-.24-1.85-.24-3.85-2.24-.94-4.14-1.13-8.13-1.14-12.36-.01-1.26-.02-2.52-.02-3.81 0-1.38 0-2.76-.01-4.14 0-1.47 0-2.93-.01-4.4-.01-3.96-.02-7.92-.02-11.89-.01-2.48-.01-4.95-.02-7.43-.01-7.75-.02-15.5-.02-23.25-.01-8.95-.02-17.89-.05-26.84-.03-6.92-.04-13.84-.04-20.76 0-4.13 0-8.26-.02-12.39-.02-3.89-.02-7.77-.01-11.65 0-1.42-.01-2.85-.02-4.28-.01-1.94 0-3.88.01-5.82 0-1.09 0-2.18-.01-3.3.38-2.68.38-2.68 1.72-4.53 2.6-1.81 4.89-1.53 8.02-1.54m27.64 32.39c-.09 2.96-.12 5.89-.1 8.85v2.68l.03 8.53c.01 1.92.01 3.85.02 5.77.01 4.72.03 9.44.05 14.17 5.23 1.74 10.72 1.11 16.18 1l3.66.02c7.24-.17 11.49-.93 16.6-6.23.51-.59 1.03-1.18 1.56-1.79.54-.52 1.07-1.04 1.63-1.58 3.49-3.64 3.59-8.5 3.8-13.3-.14-6.01-1.24-9.79-5.43-14.12-7.62-5.44-14.98-5.66-24.07-5.38-1.23.02-2.47.03-3.74.05-5.46-.43-5.46-.43-10.19 1.33M656.516 1059.612c.66-.01 1.31-.01 1.99-.02 2.18-.01 4.35 0 6.53.01 1.52 0 3.04-.01 4.56-.01 3.18 0 6.37 0 9.56.02 4.06.01 8.13 0 12.19-.01q4.71-.015 9.42 0c1.5 0 2.99 0 4.49-.01 9.49-.04 18.6-.02 26.74 5.41.89.2 1.78.41 2.69.62 4.86 2.02 7.77 5.58 11.31 9.38l2.02 1.87c2.38 2.56 3.89 5.18 5.55 8.25.58 1.06 1.15 2.11 1.75 3.2 3.99 8.22 5.21 16.1 5.18 25.18l.09 2.93c.02 7.34-1.91 12.29-5.59 18.57-.47.97-.47.97-.96 1.95-2.14 4.22-4.76 6.76-8.38 9.64-1.87 1.49-1.87 1.49-3.72 4.1-2.32 2.77-4.64 3.89-7.94 5.31.68.86 1.37 1.73 2.07 2.62 2.86 3.99 4.92 8.27 7.06 12.68 3.22 6.56 7 12.73 10.82 18.95 1.11 1.83 2.17 3.69 3.22 5.56 1.68 3.09 1.68 3.09 3.46 5.31 1.62 2.21 2.4 4.31 3.37 6.88 1.1 2.31 2.19 4.61 3.3 6.91.7 2.09.7 2.09-.3 5.09-36.48.28-36.48.28-40.23-2.88-2.13-2.55-3.35-5.11-4.77-8.12-.8-1.47-1.61-2.92-2.43-4.38-1.68-2.98-3.26-5.98-4.75-9.06-1.56-3.51-1.56-3.51-3.82-5.56-.6-1.44-1.16-2.91-1.68-4.38-2.89-7.46-6.6-14.95-12.32-20.62v-2q-2.685-.045-5.37-.06c-1-.02-2-.03-3.02-.04-2.59-.08-2.59-.08-4.61 1.1l-.03 2.08c-.1 7.12-.22 14.24-.34 21.36l-.12 7.98c-.06 3.82-.12 7.63-.19 11.45-.02 1.8-.02 1.8-.05 3.63l-.06 3.34c-.02.97-.03 1.95-.05 2.95-.16 2.21-.16 2.21-1.16 3.21-2.42.12-4.82.19-7.24.2-.73.01-1.45.01-2.2.02-1.54.01-3.08.01-4.62.02-2.36.01-4.72.04-7.08.07-1.49.01-2.98.01-4.48.02l-2.14.03c-2-.01-2-.01-5.24-.36-2.35-3.54-2.25-5-2.26-9.19 0-1.29-.01-2.59-.02-3.92 0-1.44.01-2.88.01-4.32 0-1.51-.01-3.03-.02-4.54-.01-4.11-.01-8.22-.01-12.33 0-3.43 0-6.86-.01-10.29q-.015-12.135 0-24.27 0-12.525-.03-25.05c-.02-7.17-.02-14.34-.02-21.5 0-4.28 0-8.56-.01-12.85-.02-4.02-.01-8.05 0-12.07 0-1.48 0-2.96-.01-4.44-.01-2.01 0-4.03.01-6.04v-3.43c.37-2.76.37-2.76 1.72-4.62 2.63-1.81 5.01-1.52 8.17-1.53m26.48 32.39c-.08 3.03-.11 6.03-.09 9.06v2.76l.03 8.74c.01 1.97.01 3.94.02 5.91.01 4.84.02 9.69.04 14.53 4.17-.05 8.34-.15 12.5-.25l3.56-.04c8.64-.25 14.21-1.39 20.82-7.27 5.35-6.14 4.54-11.6 4.12-19.44-.65-5.4-2.8-8.51-7-12-4.84-3.01-29.34-6.66-34-2M553 1057.688c1.09-.02 2.17-.03 3.29-.05 7.48 0 14.65.74 21.71 3.36.5.99.5.99 1 2 2.42.82 4.88 1.41 7.36 2.03 3.14 1.16 5.1 2.8 7.64 4.97l2.43 1.76c5.74 4.25 9.44 8.48 13.04 14.64 1.32 2.24 2.7 4.24 4.28 6.29 2.59 3.52 3.81 7.2 5.25 11.31l2 3c.6 1.95.6 1.95 1.06 4.13.16.7.31 1.41.48 2.13 1.45 8.58 1.68 17.07 1.7 25.75.01 2.16.04 4.31.07 6.47.1 12.26-1.18 23.65-7.31 34.52-.25.74-.51 1.47-.77 2.23-1.75 3.95-4.25 7.2-6.85 10.65-.54.71-1.08 1.43-1.63 2.16-3.82 4.97-7.81 9.1-12.75 12.96-.62.7-1.24 1.4-1.88 2.13-3.54 3.13-7.87 4.86-12.12 6.87-.98.51-1.96 1.02-2.96 1.55-14.83 7.11-37.56 6.5-53.04 1.45-2.75-1.44-2.75-1.44-5-3-1.22-.72-1.22-.72-2.46-1.46-1.72-1.02-3.42-2.05-5.13-3.08-1.81-1.09-3.64-2.16-5.47-3.21-6.47-4.95-11.63-11.38-15.94-18.25l-2-2.12c-2.6-3.74-3.71-7.57-5.05-11.89a77 77 0 0 0-2.64-7.05c-1.6-4.12-1.84-8.24-2.1-12.62-.07-2.34-.07-2.34-1.21-4.32-.97-8.3-1.4-16.12.46-24.33.81-4.01.98-8.05 1.2-12.14.34-2.53.34-2.53 2.34-5.53.67-2.33 1.34-4.66 2-7 1.27-3.41 2.39-6.38 5-9l1.12-3c4.15-9.89 12.55-16.67 20.88-23 .7-.56 1.39-1.11 2.11-1.69 2.73-1.89 5.71-2.42 8.89-3.31 3.21-1.71 3.21-1.71 6-4 8.29-1.92 16.52-2.34 25-2.31m-31 45.31c-4.78 6.53-6.12 14.82-7.06 22.69-.47 3.86-.99 7.55-1.94 11.31-.26 5.39.26 8.89 2 14 .26 2.48.43 4.95.56 7.44.56 3.25 1.89 5.66 3.44 8.56.43.97.85 1.94 1.29 2.93 3.62 7.98 8.05 14.27 16.07 18.24 9.14 2.88 22.92 3.42 31.79-.91 10.29-6.99 15.84-16.46 18.85-28.26l1-1c.13-2.55.19-5.07.2-7.62.01-.77.01-1.55.02-2.34.01-1.65.02-3.3.02-4.94.01-2.49.04-4.98.07-7.47.07-10.47-.31-19.63-6.31-28.63-.45-.97-.91-1.94-1.38-2.93-3.7-7-6.83-9.61-14.22-12.21-2.4-.86-2.4-.86-4.23-1.95-15.01-6.29-30.1 2.5-40.17 13.09M113.852 1059.734c1.89 0 1.89 0 3.83-.01 1.95.01 1.95.01 3.94.03l3.97-.03c1.26 0 2.52.01 3.82.01 1.15 0 2.29 0 3.47.01 3.13.26 5.33.84 8.12 2.26 1 1.77 1 1.77 1.56 3.93 1.04 3.65 2.18 7.2 3.5 10.75 1.09 2.97 2.14 5.93 3.13 8.94.59 2.3.59 2.3 1.81 3.38.1.99.2 1.98.31 3 .51 3.98 2.01 7.19 3.71 10.8 1.33 2.98 2.11 6.06 2.98 9.2.49 1.15.99 2.31 1.5 3.5 1.48 3.46 2.48 6.87 3.5 10.5.71 1.88 1.43 3.76 2.15 5.63 1.44 4.01 2.64 8.1 3.87 12.18 1.25 4.09 2.6 8.14 3.98 12.19 2 6 2 6 2.68 8.08 2.03 6.16 4.1 12.27 6.82 18.17 1.85 4.19 2.75 8.62 3.75 13.07.65 2.87.65 2.87 2.75 5.68.43 1.6.43 1.6.87 3.25.93 3.09 1.69 4.77 3.38 7.37.58 1.11 1.15 2.23 1.75 3.38-.89 2.71-.89 2.71-2 5-4.15.05-8.29.08-12.43.11-1.41.01-2.82.02-4.23.04-2.03.02-4.06.03-6.1.04l-3.69.03c-4.69-.3-8.94-.65-12.41-4.04-1.24-2.37-1.89-4.45-2.46-7.06-.2-.92-.41-1.85-.62-2.79-.21-.96-.41-1.91-.62-2.9-.42-1.9-.83-3.79-1.26-5.69-.18-.84-.36-1.68-.54-2.54-.6-2.46-.6-2.46-2.64-5.2-2.22-.44-2.22-.44-4.82-.34h-3.03l-3.28.04c-1.11.01-2.22.01-3.36.02-3.54.01-7.09.05-10.64.09-2.4.01-4.8.03-7.2.04q-8.835.045-17.67.15l-1.44 3.78c-.27.7-.53 1.41-.81 2.13-1.08 2.98-1.89 6.03-2.75 9.09-.97 3.01-1.99 6-3 9-.67 2-1.34 4-2 6-.98-.01-1.96-.01-2.97-.02-3.64-.02-7.27-.03-10.91-.04-1.57 0-3.15-.01-4.72-.02-2.26-.01-4.53-.02-6.79-.02l-2.13-.02c-3.34 0-6.27.24-9.48 1.12-1-1-1-1-1.19-4.38.19-3.62.19-3.62 2.19-6.62.84-3.08 1.52-6.18 2.22-9.29.78-2.71.78-2.71 2.78-4.71.54-1.88 1.01-3.78 1.44-5.69 1.11-4.72 2.62-8.87 4.56-13.31.5-1.79.98-3.58 1.44-5.38.91-3.51 1.95-6.72 3.5-10 2.2-4.69 3.64-9.52 5.12-14.48 1-3.34 2.09-6.65 3.23-9.95.58-1.81 1.12-3.63 1.63-5.46 1.13-3.9 2.36-7.76 3.64-11.61l.67-2.05c1.65-4.95 1.65-4.95 2.77-6.07.18-1.67.18-1.67.37-3.38.63-3.62.63-3.62 2.1-4.97 2.2-2.38 2.19-4.54 2.59-7.72.73-5.73.73-5.73 2.94-7.93.71-2.21 1.34-4.45 1.94-6.69 1.37-5.01 2.86-9.62 5.06-14.31.25-.93.49-1.86.75-2.82 1.25-2.18 1.25-2.18 4.4-3.3 3.71-.85 6.9-1.14 10.7-1.15m6.15 46.27v4h2v-4zm-1 6c-.63 1.49-1.26 2.99-1.88 4.5-.34.83-.69 1.67-1.05 2.53-1.06 2.92-1.82 5.85-2.54 8.87-.87 3.43-1.95 6.79-3.03 10.16-.84 2.64-1.68 5.29-2.5 7.94-.38 1.21-.76 2.43-1.16 3.68-1.05 3.55-1.05 3.55-.84 8.32h31c-.74-4.46-1.36-7.05-3-11-.48-1.67-.96-3.34-1.43-5.01-.99-3.47-2.06-6.92-3.13-10.37-.23-.72-.45-1.45-.67-2.19-.87-3.5-.87-3.5-2.77-6.43-.39-1.52-.74-3.04-1.06-4.57-.18-.82-.36-1.65-.54-2.5-.2-.96-.2-.96-.4-1.93h-2v-2zM905.188 1057.688c1.01 0 2.02.01 3.05.01 10.25.16 20.47.71 28.76 7.3.83.31 1.65.62 2.5.94 2.75 1.17 4.74 2.75 6.96 4.72 1.49 1.3 3.08 2.48 4.67 3.65 5.21 4.88 7.19 10.84 8.87 17.69.31 1.18.31 1.18.63 2.38.76 5.32 1.42 10.05-1.63 14.62-4.34 1.83-8.59 2.46-13.25 3-5.39.66-10.62 1.52-15.89 2.83-.61.06-1.23.11-1.86.17-2.77-2.77-2.55-4.95-3-8.81-.58-7.54-.58-7.54-4.63-13.52-8.13-3.88-16.53-4.59-25.37-2.67-3.82 1.88-5.56 3.36-7.93 6.88-1.25 3.65-1.07 5.43-.07 9.12.23 1.03.46 2.07.69 3.13 1.69 3.69 3.85 5.05 7.31 6.87.78.43 1.57.85 2.37 1.29 4.82 2.51 9.38 4.26 14.63 5.71 6.22 2.4 12.31 5.04 18.22 8.12 2.01 1.03 2.01 1.03 5.16 2.13 4.33 1.8 7.68 4.86 11.26 7.83 1.89 1.54 3.72 2.85 5.8 4.11 2.92 2.07 3.97 3.63 5.56 6.81.33.56.66 1.11 1 1.68 5.58 9.88 5.82 21.32 4 32.32l-2 3c-.48 2.01-.97 4.01-1.44 6.02-2.42 8.64-10.33 15.27-17.56 19.98-3.25 1.61-6.56 2.85-10 4-.58.25-1.16.51-1.76.76-6.84 2.74-13.71 2.7-20.98 2.63-2.12-.01-4.24 0-6.36.02-8.01.01-15.27-.73-22.9-3.41-.91-.32-1.83-.64-2.77-.97-5.4-1.97-9.8-4.37-14.23-8.03v-2h-2c-3.82-4.23-7.29-8.97-10-14-.36-.52-.72-1.04-1.1-1.58-3.53-5.68-3.1-10.82-2.65-17.34.75-3.08.75-3.08 2.35-4.89 3.2-1.58 6.41-2.23 9.9-2.81.71-.13 1.41-.25 2.14-.38 12.99-2.19 12.99-2.19 18.36-2 2.7 2.7 2.68 4.97 3.44 8.69 1.48 5.18 2.77 8.42 7.13 11.69 7.52 4.02 17.12 4.03 25.43 2.62 4.62-1.91 7.62-3.51 10-8 .83-5.57 1.21-10.29-2.12-15l-2.88-2c-.99-.72-1.98-1.44-3-2.19-2.69-1.62-5.04-2.77-8-3.81-.64-.23-1.29-.47-1.96-.71-3.93-1.39-7.74-2.46-11.85-3.16-15.95-3.06-31.1-12.3-40.44-25.56-5.03-7.46-6.24-14.22-6.12-23-.01-.9-.03-1.79-.04-2.7.04-7.79 1.2-15.3 6.79-21.12.61-.65 1.23-1.3 1.87-1.98.87-.87.87-.87 1.75-1.77.81-.84 1.61-1.69 2.44-2.56.85-.8 1.69-1.61 2.56-2.44.57-.58 1.15-1.16 1.74-1.75 4.43-4.25 8.17-6.26 14.16-7.64 2.3-.48 2.3-.48 4.1-2.61 6.52-2.29 13.36-2.35 20.19-2.31M1094.438 1057.625c1.51.01 1.51.01 3.05.03 7.18.14 13.74.83 20.51 3.35.77.25 1.54.51 2.33.77 8.71 3.31 17.66 10.41 22.67 18.23 3.05 6.87 5.62 13.42 5.11 21.02-.17 3.08.38 5.94.89 8.98-4.62 2.12-4.62 2.12-8 1-2.07.13-2.07.13-4.31.55-.83.14-1.66.28-2.51.42-.86.15-1.73.31-2.62.46-1.7.3-3.41.59-5.12.87-1.13.2-1.13.2-2.29.4-2.15.3-2.15.3-6.15.3-2.58-2.58-2.37-4.04-2.75-7.63-.91-6.02-2.77-10.2-7.25-14.37-5.37-3.63-13.68-3.34-20-3-4.53.99-7.83 2.36-10.56 6.18-.86 5.54-1.54 10.9 1.56 15.82 1.97 1.38 3.97 2.71 6 4 .48.49.96.98 1.45 1.49 5.11 4.95 13.11 6.22 19.78 7.8 3.48.88 6.53 2.17 9.77 3.71.99.43 1.98.86 3 1.31 9.61 4.26 17.49 8.36 24 16.69.87.55 1.74 1.11 2.63 1.68 3.3 3.21 3.79 6.54 4.79 10.95.35 2.31.35 2.31 1.58 3.37 2.24 12.45 2.5 26.06-3.87 37.31-.7.88-1.4 1.77-2.13 2.69-.68.94-1.36 1.89-2.06 2.87-7.49 8.78-19.63 16-31.17 17.39-2.46.19-4.92.32-7.39.42l-2.67.12c-9.73.36-18.82.64-27.71-3.8-.8-.24-1.61-.47-2.44-.7-7.66-2.24-12.28-6.16-17.83-11.65-2.64-2.66-2.64-2.66-5.44-4.78-4.37-3.58-6.37-8.65-8.29-13.87-.27-.58-.54-1.15-.82-1.74-2.47-5.57-2.43-10.32-1.18-16.26 2.35-2.35 8.61-1.8 11.95-2.08 4.08-.4 7.63-1.01 11.45-2.51 3.61-1.42 5.01-1.65 8.6-.41.25.78.5 1.56.75 2.37 1.34 3.88 2.87 7.66 4.45 11.45.8 2.18.8 2.18.8 4.18 1.09.4 1.09.4 2.19.81 2.81 1.19 2.81 1.19 4.94 2.73 3.94 2 7.32 1.99 11.69 1.96.8-.01 1.6-.01 2.43-.02 5.94-.16 10.51-1.02 14.75-5.48 3.62-3.98 3.51-7.24 3.35-12.44-.17-2.71-.17-2.71-2.03-5.06-2.41-1.57-4.83-3.07-7.32-4.5-.59-.5-1.18-.99-1.79-1.5-2.63-1.8-4.85-2.33-7.96-3-4.96-1.17-9.55-2.56-14.25-4.5l-2.8-1.13c-6.56-2.67-12.91-5.63-19.2-8.87-.69-.31-1.38-.61-2.1-.92-2.28-1.31-3.29-2.67-4.77-4.84-1.91-2.69-3.74-4.86-6.25-7-3.71-3.48-4.72-7.96-6.12-12.73-.52-2.43-.52-2.43-1.76-3.51-1.04-13.7-.11-25.45 9.19-36.32 6.77-6.9 13.42-12.97 22.81-15.68.79-.26 1.59-.51 2.4-.76 6.79-2.04 12.97-2.72 20.04-2.62M1002.625 1059.625c1.23-.02 2.45-.05 3.72-.07l3.57-.02 3.25-.02c3.74.64 4.63 1.38 6.84 4.49.58 3.38.49 6.74.43 10.17v3.14c-.01 3.45-.04 6.9-.08 10.35-.01 2.43-.02 4.86-.02 7.29-.02 6.44-.07 12.88-.12 19.31-.07 10.14-.11 20.29-.16 30.43l-.03 7.44c-.09 18.08.09 36.12.7 54.19.02.8.05 1.59.07 2.41.05 1.47.1 2.94.16 4.4.05 1.62.06 3.24.05 4.87-2.03 2.02-6.15 1.28-8.94 1.35-1.2.03-1.2.03-2.41.07-1.69.04-3.37.09-5.06.13-2.58.07-5.17.15-7.76.23-1.63.04-3.26.09-4.9.13-1.17.03-1.17.03-2.36.07-1.86.05-3.72.04-5.57.02-1-1-1-1-1.13-3.58v-5.45c0-2.17.01-4.33.01-6.5v-4.64c0-4.21.01-8.43.01-12.64.01-4.4.01-8.79.01-13.19 0-8.34.01-16.67.02-25 .01-9.49.02-18.97.02-28.46.02-19.51.03-39.03.06-58.54 6.66-2.34 12.6-2.37 19.62-2.38M804.938 1059.875c.76 0 1.52-.01 2.3-.01 5.01.01 9.81.43 14.76 1.13 2.63 6.97 2.29 13.99 2.28 21.34 0 1.45.01 2.91.01 4.36.02 3.93.02 7.87.01 11.8 0 3.29.01 6.57.01 9.86.01 7.75.01 15.49.01 23.24-.01 8 0 15.99.03 23.99.01 6.86.02 13.73.02 20.6-.01 4.1 0 8.2.01 12.3.01 3.85.01 7.71 0 11.56 0 1.41 0 2.83.01 4.24.01 1.93 0 3.86-.01 5.78v3.27c-.38 2.66-.38 2.66-1.7 4.51-2.79 1.92-5.6 1.62-8.94 1.7l-2.13.06c-1.48.04-2.97.08-4.45.1-2.28.04-4.56.11-6.84.17-7.91.2-7.91.2-11.32.12-1.81-1.81-1.12-4.63-1.12-7.07-.01-.64-.01-1.28-.01-1.94v-11.13c-.01-4.21 0-8.42 0-12.63v-13.18c-.01-7.38 0-14.76 0-22.14.01-8.55.01-17.1 0-25.64v-35.11c-.01-4.12 0-8.24 0-12.36v-4.54c0-2.06 0-4.12.01-6.18v-3.5c.12-2.58.12-2.58 1.12-3.58 5.34-.98 10.52-1.15 15.94-1.12"/></svg>